<svg xmlns="http://www.w3.org/2000/svg" xmlns:xlink="http://www.w3.org/1999/xlink" width="500" zoomAndPan="magnify" viewBox="0 0 375 374.999991" height="500" preserveAspectRatio="xMidYMid meet" version="1.0">
  <g clip-path="url(#3fb702ab30)">
    <path fill="#fff" d="M 249.007812 141.179688 C 249.007812 143.164062 248.910156 145.144531 248.714844 147.117188 C 248.523438 149.09375 248.230469 151.054688 247.84375 153 C 247.457031 154.945312 246.976562 156.867188 246.398438 158.765625 C 245.824219 160.664062 245.15625 162.53125 244.394531 164.363281 C 243.636719 166.199219 242.789062 167.988281 241.855469 169.738281 C 240.917969 171.488281 239.898438 173.1875 238.796875 174.839844 C 237.695312 176.488281 236.515625 178.082031 235.253906 179.613281 C 233.996094 181.148438 232.664062 182.617188 231.261719 184.019531 C 229.859375 185.421875 228.390625 186.753906 226.855469 188.011719 C 225.324219 189.273438 223.730469 190.453125 222.082031 191.554688 C 220.433594 192.65625 218.730469 193.675781 216.980469 194.613281 C 215.230469 195.546875 213.441406 196.394531 211.605469 197.152344 C 209.773438 197.914062 207.90625 198.582031 206.007812 199.15625 C 204.109375 199.734375 202.1875 200.214844 200.242188 200.601562 C 198.296875 200.988281 196.335938 201.277344 194.359375 201.472656 C 192.386719 201.667969 190.40625 201.765625 188.421875 201.765625 C 186.4375 201.765625 184.457031 201.667969 182.484375 201.472656 C 180.507812 201.277344 178.546875 200.988281 176.601562 200.601562 C 174.65625 200.214844 172.734375 199.734375 170.835938 199.15625 C 168.9375 198.582031 167.070312 197.914062 165.238281 197.152344 C 163.402344 196.394531 161.613281 195.546875 159.863281 194.613281 C 158.113281 193.675781 156.410156 192.65625 154.761719 191.554688 C 153.113281 190.453125 151.519531 189.273438 149.988281 188.011719 C 148.453125 186.753906 146.984375 185.421875 145.582031 184.019531 C 144.179688 182.617188 142.847656 181.148438 141.589844 179.613281 C 140.328125 178.082031 139.148438 176.488281 138.046875 174.839844 C 136.945312 173.1875 135.925781 171.488281 134.988281 169.738281 C 134.054688 167.988281 133.207031 166.199219 132.449219 164.363281 C 131.6875 162.53125 131.019531 160.664062 130.445312 158.765625 C 129.867188 156.867188 129.386719 154.945312 129 153 C 128.613281 151.054688 128.320312 149.09375 128.128906 147.117188 C 127.933594 145.144531 127.835938 143.164062 127.835938 141.179688 C 131.175781 60.847656 245.667969 60.847656 249.007812 141.179688 Z M 301.683594 278.347656 C 300.902344 279.980469 300.011719 281.550781 299.011719 283.058594 C 298.011719 284.566406 296.90625 285.996094 295.703125 287.347656 C 294.5 288.699219 293.207031 289.957031 291.824219 291.128906 C 290.441406 292.296875 288.984375 293.363281 287.453125 294.324219 C 285.917969 295.285156 284.328125 296.136719 282.671875 296.875 C 281.019531 297.609375 279.324219 298.226562 277.582031 298.726562 C 275.84375 299.222656 274.078125 299.59375 272.285156 299.84375 C 270.492188 300.089844 268.6875 300.210938 266.878906 300.203125 L 109.964844 300.203125 C 108.152344 300.199219 106.351562 300.070312 104.554688 299.816406 C 102.761719 299.558594 100.996094 299.179688 99.253906 298.675781 C 97.511719 298.171875 95.816406 297.546875 94.164062 296.804688 C 92.507812 296.066406 90.914062 295.210938 89.382812 294.246094 C 87.847656 293.277344 86.390625 292.210938 85.007812 291.039062 C 83.621094 289.871094 82.328125 288.609375 81.121094 287.257812 C 79.914062 285.90625 78.808594 284.472656 77.804688 282.96875 C 76.796875 281.460938 75.902344 279.890625 75.117188 278.257812 C 74.332031 276.621094 73.664062 274.941406 73.113281 273.214844 C 72.5625 271.488281 72.136719 269.730469 71.835938 267.945312 C 71.53125 266.160156 71.355469 264.359375 71.304688 262.546875 C 71.253906 260.738281 71.332031 258.929688 71.535156 257.128906 C 71.738281 255.328125 72.0625 253.550781 72.515625 251.796875 C 72.96875 250.042969 73.542969 248.328125 74.234375 246.652344 C 74.929688 244.976562 75.734375 243.359375 76.65625 241.800781 C 77.578125 240.238281 78.601562 238.75 79.730469 237.332031 C 83.710938 232.519531 88.023438 228.027344 92.667969 223.851562 C 97.3125 219.675781 102.238281 215.863281 107.445312 212.414062 C 112.648438 208.964844 118.082031 205.914062 123.738281 203.265625 C 129.394531 200.617188 135.210938 198.398438 141.195312 196.609375 C 144.445312 199.417969 147.917969 201.914062 151.613281 204.101562 C 155.3125 206.289062 159.171875 208.128906 163.199219 209.625 C 167.222656 211.121094 171.351562 212.246094 175.578125 213.003906 C 179.808594 213.761719 184.070312 214.136719 188.363281 214.128906 L 188.597656 214.128906 C 192.882812 214.128906 197.132812 213.75 201.351562 212.992188 C 205.570312 212.234375 209.6875 211.105469 213.703125 209.609375 C 217.71875 208.113281 221.570312 206.273438 225.257812 204.089844 C 228.945312 201.90625 232.40625 199.414062 235.648438 196.609375 C 241.632812 198.398438 247.453125 200.617188 253.105469 203.265625 C 258.761719 205.914062 264.195312 208.964844 269.402344 212.414062 C 274.605469 215.863281 279.53125 219.675781 284.175781 223.851562 C 288.820312 228.027344 293.132812 232.519531 297.113281 237.332031 C 298.253906 238.746094 299.289062 240.238281 300.21875 241.800781 C 301.148438 243.363281 301.960938 244.984375 302.660156 246.664062 C 303.359375 248.339844 303.9375 250.0625 304.390625 251.820312 C 304.84375 253.582031 305.171875 255.367188 305.375 257.171875 C 305.574219 258.980469 305.648438 260.792969 305.59375 262.609375 C 305.535156 264.429688 305.351562 266.230469 305.039062 268.023438 C 304.726562 269.816406 304.289062 271.574219 303.730469 273.304688 C 303.167969 275.035156 302.484375 276.714844 301.683594 278.347656 Z M 301.683594 278.347656 "/>
  </g>
</svg>    
